HIERARCHY
ROOT RootJoint
{
    OFFSET   0.000000   0.000000   0.000000
    CHANNELS 6 Xposition Yposition Zposition Xrotation Yrotation Zrotation
    JOINT pelvis_lowerback
    {
        OFFSET   0.000000   0.093605   0.000000
        CHANNELS 3 Xrotation Yrotation Zrotation
        JOINT lowerback_torso
        {
            OFFSET   0.000000   0.100000   0.000000
            CHANNELS 3 Xrotation Yrotation Zrotation
            JOINT torso_head
            {
                OFFSET   0.000000   0.282350   0.000000
                CHANNELS 3 Xrotation Yrotation Zrotation
                End Site
                {
                    OFFSET   0.000000   0.192650   0.000000
                }
            }
            JOINT rTorso_Clavicle
            {
                OFFSET  -0.001000   0.157500   0.000000
                CHANNELS 3 Xrotation Yrotation Zrotation
                JOINT rShoulder
                {
                    OFFSET  -0.117647   0.000000   0.000000
                    CHANNELS 3 Xrotation Yrotation Zrotation
                    JOINT rElbow
                    {
                        OFFSET  -0.245000   0.000000   0.000000
                        CHANNELS 3 Xrotation Yrotation Zrotation
                        JOINT rWrist
                        {
                            OFFSET  -0.240000   0.000000   0.000000
                            CHANNELS 3 Xrotation Yrotation Zrotation
                            End Site
                            {
                                OFFSET  -0.116353  -0.002500   0.000000
                            }
                        }
                    }
                }
            }
            JOINT lTorso_Clavicle
            {
                OFFSET   0.001000   0.157500   0.000000
                CHANNELS 3 Xrotation Yrotation Zrotation
                JOINT lShoulder
                {
                    OFFSET   0.117647   0.000000   0.000000
                    CHANNELS 3 Xrotation Yrotation Zrotation
                    JOINT lElbow
                    {
                        OFFSET   0.245000   0.000000   0.000000
                        CHANNELS 3 Xrotation Yrotation Zrotation
                        JOINT lWrist
                        {
                            OFFSET   0.240000   0.000000   0.000000
                            CHANNELS 3 Xrotation Yrotation Zrotation
                            End Site
                            {
                                OFFSET   0.116353  -0.002500   0.000000
                            }
                        }
                    }
                }
            }
        }
    }
    JOINT rHip
    {
        OFFSET  -0.100000  -0.051395   0.000000
        CHANNELS 3 Xrotation Yrotation Zrotation
        JOINT rKnee
        {
            OFFSET   0.000000  -0.410000   0.000000
            CHANNELS 3 Xrotation Yrotation Zrotation
            JOINT rAnkle
            {
                OFFSET   0.000000  -0.390000   0.000000
                CHANNELS 3 Xrotation Yrotation Zrotation
                JOINT rToeJoint
                {
                    OFFSET   0.000000  -0.050000   0.130000
                    CHANNELS 3 Xrotation Yrotation Zrotation
                    End Site
                    {
                        OFFSET  -0.010000   0.002000   0.060000
                    }
                }
            }
        }
    }
    JOINT lHip
    {
        OFFSET   0.100000  -0.051395   0.000000
        CHANNELS 3 Xrotation Yrotation Zrotation
        JOINT lKnee
        {
            OFFSET   0.000000  -0.410000   0.000000
            CHANNELS 3 Xrotation Yrotation Zrotation
            JOINT lAnkle
            {
                OFFSET   0.000000  -0.390000   0.000000
                CHANNELS 3 Xrotation Yrotation Zrotation
                JOINT lToeJoint
                {
                    OFFSET   0.000000  -0.050000   0.130000
                    CHANNELS 3 Xrotation Yrotation Zrotation
                    End Site
                    {
                        OFFSET   0.010000   0.002000   0.060000
                    }
                }
            }
        }
    }
}
MOTION
Frames: 17
Frame Time:   0.008333
 -2.376719   0.925631   3.975860   0.000000   0.000000   0.000000   0.000000   0.000000   0.000000   0.000000   0.000000   0.000000   0.000000   0.000000   0.000000   0.000000   0.000000   0.000000   0.000000   0.000000   0.000000   0.000000   0.000000   0.000000   0.000000   0.000000   0.000000   0.000000   0.000000   0.000000   0.000000   0.000000   0.000000   0.000000   0.000000   0.000000   0.000000   0.000000   0.000000   0.000000   0.000000   0.000000   0.000000   0.000000   0.000000   0.000000   0.000000   0.000000   0.000000   0.000000   0.000000   0.000000   0.000000   0.000000   0.000000   0.000000   0.000000   0.000000   0.000000   0.000000   0.000000   0.000000   0.000000
 -2.376763   0.926194   3.975699   0.195868   0.104433  -0.192001  -0.264378  -0.056286   0.179092   0.073069  -0.160382   0.082790  -0.134100   0.215295  -0.001324   0.247007  -0.329860   0.333195   1.012481   0.434290   1.994983   0.015936   0.756004  -0.008426   0.488748  -0.418879  -2.701967   0.243928   0.374573  -0.483941   1.372584  -0.180916  -1.937521   0.019083  -0.922912   0.013182   0.546550   0.349826   2.548872  -0.374330   0.340534   0.128020   0.394895   0.000226   0.001537  -0.411595  -0.047846  -0.050614  -0.310713  -0.000303  -0.001081  -0.619298  -0.171284   0.312527   1.310318  -0.001402  -0.000720  -1.077307   0.080747   0.033478   0.299146  -0.000404   0.000041
 -2.376808   0.927149   3.975660   0.347575   0.181272  -0.411851  -0.525108  -0.111860   0.374172   0.147171  -0.319307   0.194851  -0.261933   0.421371   0.007999   0.488862  -0.590336   1.378056   1.991315   0.949157   4.556372   0.037099   1.498501  -0.014482   1.011137  -0.600834  -4.689917   0.491054   0.677325  -1.673042   2.717462  -0.455434  -4.449766   0.044127  -1.819926   0.022901   1.138389   0.453066   4.369971  -0.723465   0.684559   0.207808   0.794205   0.000696   0.002701  -0.799718  -0.087841  -0.096846  -0.638395  -0.000759  -0.001970  -1.147547  -0.335946   0.726432   2.684321  -0.003536  -0.001423  -2.080008   0.158192   0.067705   0.547902  -0.000825   0.000031
 -2.376826   0.928092   3.975732   0.485640   0.235505  -0.628684  -0.789174  -0.170523   0.566588   0.201992  -0.473196   0.313706  -0.385800   0.613669   0.019744   0.718217  -0.790521   2.859993   2.926553   1.533044   7.488713   0.057990   2.202169  -0.018310   1.517512  -0.679003  -5.855057   0.728507   0.911508  -3.282888   4.025349  -0.825113  -7.332582   0.068719  -2.668514   0.029512   1.711526   0.448842   5.379995  -1.066214   1.006673   0.216712   1.165951   0.001275   0.003383  -1.163193  -0.125344  -0.140450  -0.949636  -0.001270  -0.002525  -1.590597  -0.492800   1.190139   4.001247  -0.005798  -0.001940  -3.014488   0.231047   0.101660   0.774776  -0.001226   0.000000
 -2.376819   0.928732   3.975898   0.618736   0.273302  -0.836317  -1.053102  -0.234488   0.753739   0.236646  -0.624446   0.433519  -0.506047   0.793029   0.031520   0.936802  -0.949205   4.588804   3.816852   2.180908  10.668210   0.076107   2.864918  -0.020494   2.005521  -0.698251  -6.408223   0.955661   1.094064  -5.124422   5.295666  -1.290104 -10.459255   0.089995  -3.468731   0.033879   2.263457   0.376245   5.795539  -1.406672   1.307091   0.160926   1.506590   0.001854   0.003706  -1.503557  -0.160923  -0.181765  -1.242518  -0.001773  -0.002831  -1.963961  -0.642291   1.684924   5.246388  -0.007918  -0.002236  -3.886835   0.299267   0.134970   0.977637  -0.001560  -0.000033
 -2.376791   0.928856   3.976144   0.748735   0.296678  -1.033454  -1.313412  -0.304122   0.935084   0.254861  -0.774276   0.552624  -0.621478   0.960358   0.042878   1.145649  -1.080281   6.437723   4.660328   2.886918  14.010399   0.090435   3.486616  -0.021499   2.474449  -0.682079  -6.547898   1.171558   1.238405  -7.072785   6.525829  -1.847180 -13.743548   0.106825  -4.221744   0.036650   2.794072   0.255189   5.815302  -1.744022   1.587798   0.051264   1.817903   0.002370   0.003778  -1.822143  -0.194617  -0.220896  -1.516568  -0.002226  -0.002956  -2.278201  -0.784487   2.199917   6.420331  -0.009763  -0.002355  -4.701349   0.363034   0.167450   1.158943  -0.001815  -0.000063
 -2.376751   0.928306   3.976459   0.875798   0.305071  -1.219800  -1.567687  -0.379017   1.110361   0.260397  -0.923026   0.670295  -0.731168   1.116500   0.053784   1.345590  -1.193060   8.323299   5.454929   3.645522  17.458554   0.100810   4.068084  -0.021671   2.923637  -0.646174  -6.421090   1.375300   1.354249  -9.046058   7.712283  -2.491750 -17.127147   0.119055  -4.929168   0.038288   3.303090   0.100021   5.585214  -2.076746   1.850618  -0.101715   2.102513   0.002793   0.003676  -2.120199  -0.226441  -0.257915  -1.771819  -0.002601  -0.002949  -2.541237  -0.919424   2.726837   7.526220  -0.011274  -0.002364  -5.461818   0.422566   0.198984   1.321598  -0.001992  -0.000094
 -2.376593   0.926386   3.976420   1.012585   0.255490  -1.329148  -1.712809  -0.380121   1.266078   0.227635  -1.050303   0.715902  -0.979415   1.140761   0.023449   1.562046  -1.160426   9.510262   6.329129   4.442989  20.969176   0.114222   4.837664  -0.025163   3.286743  -0.674654  -5.263557   1.552603   1.439498 -10.237124   8.678244  -3.316646 -20.602554   0.127435  -5.698841   0.039863   3.761886  -0.137435   4.377837  -2.475292   1.886882  -0.329580   2.541006   0.003586   0.002840  -2.246123  -0.290227  -0.076857  -1.823691  -0.002155  -0.002332  -2.722004  -0.949679   3.127123   8.013739  -0.010301  -0.001929  -6.167805   0.551784   0.337749   1.531980  -0.002379   0.000084
 -2.376404   0.923296   3.976167   1.154106   0.234233  -1.420631  -1.812836  -0.380985   1.415754   0.199403  -1.167348   0.751789  -1.219135   1.158506  -0.012035   1.742404  -1.063617  10.460548   7.086807   5.277113  24.140973   0.120061   5.577814  -0.027605   3.656114  -0.579561  -4.127269   1.693378   1.460740 -11.181283   9.519864  -4.174644 -23.729974   0.129142  -6.437865   0.040439   4.207917  -0.493624   3.219314  -2.848511   1.905986  -0.558222   2.966395   0.004105   0.002202  -2.358516  -0.353392   0.091393  -1.842156  -0.001749  -0.001857  -2.958151  -0.979062   3.475699   8.371286  -0.009067  -0.001483  -6.834103   0.671086   0.468860   1.706488  -0.002488   0.000235
 -2.376204   0.919140   3.975818   1.291416   0.230523  -1.505501  -1.883163  -0.374889   1.561505   0.179172  -1.270411   0.788824  -1.439782   1.174972  -0.046047   1.889233  -0.932217  11.241589   7.739941   6.117520  27.019126   0.120538   6.280927  -0.029006   4.018380  -0.417538  -3.182668   1.804106   1.446303 -11.951225  10.253265  -5.033545 -26.558733   0.126257  -7.137773   0.039995   4.636748  -0.897214   2.266686  -3.176760   1.924918  -0.772664   3.367569   0.004369   0.001749  -2.462703  -0.412776   0.248223  -1.855155  -0.001416  -0.001482  -3.236457  -1.009347   3.789197   8.668947  -0.007862  -0.001096  -7.458051   0.780630   0.592376   1.862921  -0.002463   0.000353
 -2.375974   0.919085   3.975878   1.304018   0.090598  -1.393905  -1.906414  -0.302408   1.553151   0.198024  -1.314185   0.770742  -1.636650   1.192452  -0.082836   2.010695  -0.767162  12.212036   8.295821   6.960164  29.756440   0.119491   6.939325  -0.029079   4.368936  -0.263700  -2.452687   1.907045   1.433645 -12.878259  10.895817  -5.867283 -29.223171   0.122057  -7.779819   0.038512   5.042454  -1.215758   1.548761  -3.480412   1.890217  -0.925452   3.857881   0.003712   0.000558  -2.253616  -0.520733   0.500634  -1.765452  -0.001277  -0.001422  -3.608447  -0.993703   3.653236   9.426945  -0.006241  -0.001506  -7.686609   0.880585   0.561944   1.445028  -0.002162   0.000299
 -2.375827   0.919116   3.976238   1.328537  -0.036880  -1.315129  -1.971574  -0.241961   1.600095   0.200923  -1.350563   0.754972  -1.817812   1.207978  -0.121316   2.124483  -0.616707  12.979487   8.777812   7.775657  32.299882   0.115457   7.565411  -0.028328   4.704724  -0.039423  -1.636145   2.011186   1.434627 -13.623122  11.464308  -6.670980 -31.710538   0.115556  -8.388886   0.036393   5.426966  -1.586714   0.736030  -3.702920   1.908120  -1.024605   4.252373   0.003065   0.000012  -2.316585  -0.569077   0.632913  -1.730244  -0.001051  -0.001190  -3.867095  -0.984964   3.549363  10.003781  -0.004952  -0.001708  -8.061176   0.983987   0.646019   1.650031  -0.001831   0.000242
 -2.375770   0.919126   3.976711   1.378463  -0.135700  -1.253562  -2.053257  -0.189902   1.666509   0.181456  -1.385662   0.752732  -1.992589   1.222100  -0.154777   2.227111  -0.477864  13.619178   9.197057   8.550137  34.624609   0.109195   8.150125  -0.027073   5.024063   0.190881  -0.908385   2.106964   1.438107 -14.247354  11.966518  -7.435388 -33.985871   0.107403  -8.957062   0.033844   5.790888  -1.953976   0.002690  -3.910633   1.929300  -1.098902   4.591570   0.002506  -0.000259  -2.393406  -0.611989   0.753260  -1.721076  -0.000848  -0.000963  -4.100652  -0.981803   3.470356  10.490160  -0.003952  -0.001708  -8.441945   1.077231   0.731261   1.835969  -0.001570   0.000214
 -2.375850   0.919227   3.977172   1.458191  -0.200317  -1.193951  -2.093165  -0.123418   1.650294   0.131151  -1.362590   0.842532  -2.157241   1.132053  -0.175319   2.335471  -0.430782  13.825130   9.610541   9.309583  36.424117   0.100455   8.781227  -0.026667   5.285335   0.621744   0.547381   2.220694   1.433361 -14.398651  12.308442  -8.272580 -35.946854   0.098661  -9.609185   0.031796   6.130016  -2.388122  -1.296350  -4.014030   1.944599  -1.161139   4.672056   0.002007  -0.000247  -2.407687  -0.570981   0.850675  -1.541887  -0.000823  -0.000791  -4.219161  -0.985590   3.401949  10.654710  -0.003166  -0.001456  -8.602506   1.170805   0.848809   1.972484  -0.001382   0.000210
 -2.376054   0.919380   3.977504   1.592803  -0.227873  -1.137589  -2.123580  -0.061956   1.623843   0.064371  -1.344007   0.922949  -2.309966   1.046757  -0.188388   2.408999  -0.376037  13.730884   9.980106  10.013673  37.896648   0.089316   9.371055  -0.025911   5.531427   1.065194   1.724708   2.293136   1.403158 -14.279214  12.599013  -9.057004 -37.594280   0.087973 -10.225333   0.029554   6.448506  -2.861188  -2.342971  -4.132102   1.959990  -1.211986   4.669810   0.001606  -0.000197  -2.452296  -0.531777   0.939674  -1.373089  -0.000799  -0.000595  -4.352627  -0.993497   3.347163  10.714030  -0.002537  -0.001180  -8.781827   1.256506   0.962190   2.108828  -0.001235   0.000237
 -2.376384   0.919558   3.977740   1.760620  -0.224314  -1.085068  -2.137398  -0.007844   1.591107  -0.005589  -1.331539   0.986995  -2.450788   0.967461  -0.199277   2.454047  -0.315295  13.436889  10.312017  10.665669  39.118277   0.077542   9.919336  -0.024872   5.764340   1.464870   2.572902   2.336853   1.357765 -13.979484  12.851464  -9.784020 -38.992856   0.076814 -10.799274   0.027228   6.750765  -3.301165  -3.088773  -4.263431   1.974707  -1.250453   4.625244   0.001290  -0.000164  -2.511964  -0.495570   1.022365  -1.221453  -0.000771  -0.000403  -4.497327  -1.003313   3.306716  10.709164  -0.002029  -0.000944  -8.971798   1.335663   1.070004   2.231562  -0.001109   0.000277
 -2.376838   0.919744   3.977919   1.948684  -0.194345  -1.037068  -2.134988   0.039867   1.552392  -0.071434  -1.323695   1.035678  -2.579826   0.893535  -0.209515   2.479532  -0.253620  13.012115  10.613496  11.267448  40.144644   0.066163  10.427771  -0.023634   5.986884   1.812126   3.159815   2.361578   1.305556 -13.562767  13.074491 -10.455227 -40.195268   0.066111 -11.331926   0.024893   7.040061  -3.690759  -3.596692  -4.403246   1.988430  -1.276024   4.557081   0.001045  -0.000158  -2.577970  -0.462243   1.099797  -1.084237  -0.000742  -0.000227  -4.648169  -1.014919   3.280705  10.661561  -0.001614  -0.000765  -9.165148   1.408753   1.172389   2.342430  -0.000999   0.000319
